<?xml version="1.0" standalone="no"?><!DOCTYPE svg PUBLIC "-//W3C//DTD SVG 1.1//EN" "http://www.w3.org/Graphics/SVG/1.1/DTD/svg11.dtd"><svg class="icon" width="200px" height="200.00px" viewBox="0 0 1024 1024" version="1.1" xmlns="http://www.w3.org/2000/svg"><path fill="#000000" d="M643.9 231.4c14.8-11.9 36.2-9.2 47.7 6.2l5.2 7c11.5 15.4 8.9 37.5-6 49.4L420.3 512l270.5 218c14.8 11.9 17.5 34 6 49.4l-5.2 7c-11.5 15.4-32.9 18.1-47.7 6.2l-309-249c-1.1-0.9-2.2-1.9-3.2-2.9-0.2-0.2-0.4-0.4-0.6-0.7-0.2-0.2-0.4-0.4-0.6-0.7-2.7-2.9-4.9-6.2-6.6-9.8-0.1-0.2-0.2-0.5-0.3-0.8-0.1-0.3-0.3-0.7-0.4-1-0.2-0.5-0.4-1.1-0.6-1.6-1.1-2.9-1.9-6-2.2-9.2v-0.1c-0.1-0.5-0.1-1.1-0.1-1.6v-0.3c0-0.4 0-0.9-0.1-1.3v-0.7-1-1-0.7c0-0.4 0-0.9 0.1-1.3v-0.3c0-0.5 0.1-1.1 0.1-1.6v-0.1c0.4-3.1 1.1-6.2 2.2-9.2 0.2-0.5 0.4-1.1 0.6-1.7 0.1-0.3 0.3-0.7 0.4-0.9 0.1-0.2 0.2-0.5 0.3-0.8 1.7-3.5 3.9-6.9 6.6-9.8 0.2-0.2 0.4-0.4 0.6-0.7 0.2-0.2 0.4-0.4 0.6-0.7 1-1.1 2.2-2 3.2-2.9L643.9 231.4z" /></svg>