<?xml version="1.0" standalone="no"?><!DOCTYPE svg PUBLIC "-//W3C//DTD SVG 1.1//EN" "http://www.w3.org/Graphics/SVG/1.1/DTD/svg11.dtd"><svg class="icon" width="200px" height="200.00px" viewBox="0 0 1024 1024" version="1.1" xmlns="http://www.w3.org/2000/svg"><path fill="#000000" d="M689.2 480.4c1 1 2.2 1.9 3.2 2.9 0.2 0.2 0.4 0.4 0.6 0.7 0.2 0.2 0.4 0.4 0.6 0.7 2.7 2.9 4.9 6.3 6.6 9.8 0.1 0.2 0.2 0.5 0.3 0.8 0.1 0.2 0.3 0.5 0.4 0.9 0.2 0.7 0.4 1.2 0.6 1.7 1 2.9 1.8 6.1 2.2 9.2v0.1c0 0.5 0.1 1.1 0.1 1.6v0.3c0.1 0.4 0.1 0.9 0.1 1.3V513.8c-0.1 0.4-0.1 0.9-0.1 1.3v0.3c0 0.5 0 1.1-0.1 1.6v0.1c-0.3 3.2-1 6.2-2.2 9.2-0.2 0.5-0.4 1.1-0.6 1.6-0.1 0.3-0.3 0.7-0.4 1-0.1 0.2-0.2 0.5-0.3 0.8-1.7 3.6-3.9 6.9-6.6 9.8-0.2 0.2-0.4 0.4-0.6 0.7-0.2 0.2-0.4 0.4-0.6 0.7-1 1.1-2.1 2.1-3.2 2.9l-309 249c-14.8 11.9-36.2 9.2-47.7-6.2l-5.2-7c-11.6-15.4-8.9-37.5 6-49.4l270.5-218L333.1 294c-14.8-11.9-17.4-34-6-49.4l5.2-7C343.8 222.2 365.2 219.5 380 231.4l309.2 249z" /></svg>